<?xml version="1.0" encoding="UTF-8"?>
<!DOCTYPE svg PUBLIC "-//W3C//DTD SVG 1.1//EN" "http://www.w3.org/Graphics/SVG/1.1/DTD/svg11.dtd">
<!-- Creator: CorelDRAW 2017 -->
<svg xmlns="http://www.w3.org/2000/svg" xml:space="preserve" width="1233.22mm" height="1667.31mm" version="1.1" style="shape-rendering:geometricPrecision; text-rendering:geometricPrecision; image-rendering:optimizeQuality; fill-rule:evenodd; clip-rule:evenodd"
viewBox="0 0 44195.3 59752.09"
 xmlns:xlink="http://www.w3.org/1999/xlink">
 <defs>
  <style type="text/css">
   <![CDATA[
    .fil1 {fill:#0C2D48}
    .fil0 {fill:#145DA0}
    .fil2 {fill:#2E8BC0}
   ]]>
  </style>
 </defs>
 <g id="Camada_x0020_1">
  <metadata id="CorelCorpID_0Corel-Layer"/>
  <g id="_935871184">
   <path class="fil0" d="M34337.67 9749.52c-22.99,19.02 -46.34,53.44 -57.96,68.26l-1421.18 1561.3c-547.13,546.72 -1008.16,1004.87 -1554.93,1552.18l-4656.89 4544.91c-735.05,734.91 -3790.39,4216.77 -4620.93,4569.35l2.35 125.85 12253.03 12129.98c1059.93,447.43 1329.38,672.12 2699.56,859.59 6220.32,851.05 10167.95,-7701.89 4386.9,-11907.91 -1186.19,-863.03 -1941.38,-790.7 -2603.12,-1144.72 1164.87,-635.04 2791.76,-542.7 4365.3,-2963.23 3267.83,-5026.99 -1491.06,-11610.31 -7361.65,-9874.69 -562.85,166.41 -919.8,449.1 -1430.48,479.15z"/>
   <path class="fil1" d="M9834.06 34271.02c21.68,-21.19 57.23,-81.85 67.58,-60.85 105.57,215.11 119.98,-108.87 132.53,-120.21 2239.03,-2025.72 6661.83,-6619.01 8927.15,-8883.29 650.48,-650.21 2662.93,-2492.08 3023,-3098.39 -328,-558.06 -9648.33,-9752.72 -11307.74,-11425.15 -145.14,-146.27 -210.19,-215.74 -358.36,-356.14l-441.97 -406.78c-930.96,-399.51 -1489.48,-755.02 -2731.95,-861.04 -8004.81,-683.1 -9818.27,10649.76 -2478.58,12769.17l757 279.93c-1214.33,612.95 -2760.32,490.76 -4385.58,2979.86 -2221.09,3401.73 -695.21,8131.57 2869.91,9571.45 2298.38,928.3 3907.34,580.06 5927.01,-388.57z"/>
   <path class="fil2" d="M9876.25 9920.23l441.97 406.78c148.17,140.4 213.21,209.87 358.36,356.14 1659.42,1672.43 10979.75,10867.09 11307.74,11425.15 -360.07,606.31 -2372.51,2448.18 -3023,3098.39 -2265.32,2264.28 -6688.12,6857.57 -8927.15,8883.29 -12.56,11.34 -26.97,335.32 -132.53,120.21 -10.35,-21 -45.9,39.66 -67.58,60.85 -86.91,581.73 -605.22,1391.72 -756.82,2309.45 -682.56,4131.67 2708.19,8048.82 7206.61,7562.89 1972.6,-213.08 2775.14,-1030.21 3989.87,-1950.83 87.5,1480.26 -191.98,5196.03 97.75,6261.24 70.51,-1826.78 -3.16,-3829.01 -8.4,-5676.07 -3.34,-1160.98 389.75,-1079.76 857.11,-1928.33 321.54,-583.86 711.52,-1410.7 694.94,-2190.15 25.39,-708.58 35.96,-226.27 154.4,-343.67l-41.38 -16144.2 -2.35 -125.85c160.32,-1140.97 51.23,-3016 51.23,-4239.36 0,-1354.41 0,-2708.78 0,-4063.19 0,-2462.27 -186.57,-5750.75 118.89,-8110.2 -149.03,-120.34 -176.45,-79.5 -324.34,-543.74 -45.99,-144.37 -82.35,-374.16 -140.17,-562.17 -278.4,-905.35 -1034.19,-2109.61 -1621.88,-2678.6 -1629.65,-1577.7 -2757.16,-1402.79 -3746.62,-1848.24l-1614.47 0c-349.59,151.6 -1193.46,300.31 -1637.87,471.2 -2469.18,949.62 -4185.38,3473.68 -4114.5,6222.08 39.12,1517.57 434.92,2109.38 880.19,3226.95z"/>
   <path class="fil1" d="M22195.91 5632.75c-305.46,2359.46 -118.89,5647.94 -118.89,8110.2 0,1354.41 0,2708.77 0,4063.19 0,1223.36 109.09,3098.39 -51.23,4239.36 830.54,-352.58 3885.88,-3834.43 4620.93,-4569.35l4656.89 -4544.91c546.77,-547.31 1007.8,-1005.45 1554.93,-1552.18l1421.18 -1561.3c11.61,-14.82 34.97,-49.24 57.96,-68.26 1372.75,-3227.45 1047.46,-6356.1 -1890.06,-8526.33 -1311.5,-968.91 -2137.34,-871.47 -2833.72,-1223.18l-1946.67 0c-567.41,273.79 -1401.57,399.33 -2093.16,743.09 -742.91,369.24 -1002.34,637.7 -1577.57,1174.67 -613.85,573.06 -2025.63,2458.61 -1800.58,3714.99z"/>
   <path class="fil1" d="M22069.51 38315.56c296.06,752.08 250.89,1303.5 661.15,2136.8 188.91,383.6 264.26,529.92 528.02,907.65 244.07,349.5 428.87,508.87 632.19,868.09 1992.79,1965.32 5779.88,2893.58 8608.82,698.46 1037.25,-804.84 1974.31,-1943.28 2431.28,-3542.75 606.53,-2122.75 40.75,-3505.49 -649.81,-5082.46l-12253.03 -12129.98 41.38 16144.2z"/>
   <path class="fil0" d="M21915.11 38659.23c195.19,291.05 172.83,296.78 171.16,892.97 -8.9,3155.85 117.85,12902.48 -50.64,14374.11 570.98,1315.43 2376.35,2992.78 3518.36,3781.94 672.21,464.51 1580.05,963.08 2438.91,1270.93 703.61,252.16 2418.95,576.41 2834.22,772.91l4156.47 0 -12.29 -3514.43c-3235.67,-103.36 -6781.49,236.16 -9338.58,-3267.07 -848.11,-1161.93 -1596.72,-2646.44 -1749.31,-4459.57 -121.06,-1437.75 -129.56,-4863.06 7.45,-6282.92 -203.32,-359.22 -388.12,-518.59 -632.19,-868.09 -263.76,-377.73 -339.11,-524.05 -528.02,-907.65 -410.26,-833.3 -365.08,-1384.72 -661.15,-2136.8 -118.44,117.4 -129.01,-364.9 -154.4,343.67z"/>
   <path class="fil1" d="M20371.47 48453.78c-45.67,1663.12 904.85,4464.73 1664.16,5472.53 168.5,-1471.63 41.74,-11218.26 50.64,-14374.11 1.67,-596.19 24.03,-601.93 -171.16,-892.97 16.58,779.45 -373.4,1606.29 -694.94,2190.15 -467.36,848.57 -860.45,767.35 -857.11,1928.33 5.24,1847.06 78.92,3849.3 8.4,5676.07z"/>
  </g>
 </g>
</svg>
